<svg width="35" height="35" viewBox="0 0 35 35" fill="none" xmlns="http://www.w3.org/2000/svg">
<g clip-path="url(#clip0_504_62)">
<path d="M11.6668 17.5C12.0536 17.5 12.4245 17.6536 12.698 17.9271C12.9715 18.2006 13.1252 18.5716 13.1252 18.9583V24.7917C13.1252 25.1784 12.9715 25.5494 12.698 25.8229C12.4245 26.0964 12.0536 26.25 11.6668 26.25C11.2801 26.25 10.9091 26.0964 10.6356 25.8229C10.3621 25.5494 10.2085 25.1784 10.2085 24.7917V18.9583C10.2085 18.5716 10.3621 18.2006 10.6356 17.9271C10.9091 17.6536 11.2801 17.5 11.6668 17.5Z" fill="white"/>
<path d="M17.4998 17.5C17.8866 17.5 18.2575 17.6536 18.531 17.9271C18.8045 18.2006 18.9582 18.5716 18.9582 18.9583V24.7917C18.9582 25.1784 18.8045 25.5494 18.531 25.8229C18.2575 26.0964 17.8866 26.25 17.4998 26.25C17.1131 26.25 16.7421 26.0964 16.4686 25.8229C16.1951 25.5494 16.0415 25.1784 16.0415 24.7917V18.9583C16.0415 18.5716 16.1951 18.2006 16.4686 17.9271C16.7421 17.6536 17.1131 17.5 17.4998 17.5Z" fill="white"/>
<path d="M23.3333 17.5C23.7201 17.5 24.091 17.6536 24.3645 17.9271C24.638 18.2006 24.7917 18.5716 24.7917 18.9583V24.7917C24.7917 25.1784 24.638 25.5494 24.3645 25.8229C24.091 26.0964 23.7201 26.25 23.3333 26.25C22.9466 26.25 22.5756 26.0964 22.3021 25.8229C22.0286 25.5494 21.875 25.1784 21.875 24.7917V18.9583C21.875 18.5716 22.0286 18.2006 22.3021 17.9271C22.5756 17.6536 22.9466 17.5 23.3333 17.5Z" fill="white"/>
<path d="M23.3333 2.91663C23.6905 2.91667 24.0353 3.04781 24.3022 3.28517C24.5691 3.52253 24.7397 3.84959 24.7815 4.20433L24.7917 4.37496V5.83329H26.25C27.3659 5.83323 28.4397 6.2596 29.2516 7.02516C30.0636 7.79073 30.5522 8.83762 30.6177 9.95163L30.625 10.2083V27.7083C30.6251 28.8242 30.1987 29.898 29.4331 30.7099C28.6676 31.5218 27.6207 32.0105 26.5067 32.076L26.25 32.0833H8.75C7.63407 32.0834 6.56029 31.657 5.74837 30.8914C4.93645 30.1259 4.44776 29.079 4.38229 27.965L4.375 27.7083V10.2083C4.37494 9.09236 4.80131 8.01858 5.56687 7.20666C6.33244 6.39474 7.37932 5.90605 8.49333 5.84058L8.75 5.83329H10.2083V4.37496C10.2087 4.00326 10.3511 3.64575 10.6062 3.37546C10.8614 3.10518 11.2101 2.94253 11.5812 2.92075C11.9523 2.89897 12.3176 3.01969 12.6027 3.25826C12.8877 3.49683 13.0709 3.83524 13.1148 4.20433L13.125 4.37496V5.83329H21.875V4.37496C21.875 3.98819 22.0286 3.61725 22.3021 3.34376C22.5756 3.07027 22.9466 2.91663 23.3333 2.91663ZM27.7083 13.125H7.29167V27.1614C7.29167 28.1895 7.85458 29.0368 8.57937 29.1535L8.75 29.1666H26.25C26.9981 29.1666 27.615 28.3937 27.6981 27.3947L27.7083 27.1614V13.125Z" fill="white"/>
</g>
<defs>
<clipPath id="clip0_504_62">
<rect width="35" height="35" fill="white"/>
</clipPath>
</defs>
</svg>
