<svg width="35" height="35" viewBox="0 0 35 35" fill="none" xmlns="http://www.w3.org/2000/svg">
<g clip-path="url(#clip0_504_92)">
<path d="M24.7915 4.87088C26.9911 6.14088 28.8208 7.96331 30.0996 10.1578C31.3783 12.3522 32.0618 14.8426 32.0823 17.3824C32.1028 19.9222 31.4597 22.4233 30.2165 24.6381C28.9734 26.853 27.1733 28.7047 24.9946 30.0101C22.8158 31.3155 20.3339 32.0292 17.7946 32.0806C15.2552 32.1319 12.7465 31.5192 10.5167 30.3031C8.2869 29.087 6.4134 27.3096 5.08164 25.1468C3.74989 22.9841 3.00606 20.5111 2.9238 17.9725L2.9165 17.5L2.9238 17.0275C3.00547 14.509 3.73834 12.0546 5.05098 9.90358C6.36361 7.75258 8.21121 5.97841 10.4136 4.75404C12.6161 3.52967 15.0982 2.89688 17.618 2.91735C20.1378 2.93783 22.6093 3.61088 24.7915 4.87088ZM17.4998 8.75005C17.1426 8.75009 16.7979 8.88123 16.531 9.11859C16.264 9.35595 16.0935 9.68301 16.0517 10.0378L16.0415 10.2084V17.5L16.0546 17.6911C16.0879 17.9441 16.1869 18.184 16.3419 18.3867L16.4688 18.5325L20.8438 22.9075L20.9809 23.0271C21.2366 23.2256 21.5511 23.3333 21.8748 23.3333C22.1985 23.3333 22.513 23.2256 22.7688 23.0271L22.9059 22.9061L23.0269 22.769C23.2253 22.5133 23.333 22.1987 23.333 21.875C23.333 21.5513 23.2253 21.2368 23.0269 20.9811L22.9059 20.844L18.9582 16.8948V10.2084L18.948 10.0378C18.9062 9.68301 18.7356 9.35595 18.4687 9.11859C18.2018 8.88123 17.857 8.75009 17.4998 8.75005Z" fill="white"/>
</g>
<defs>
<clipPath id="clip0_504_92">
<rect width="35" height="35" fill="white"/>
</clipPath>
</defs>
</svg>
